<svg xmlns="http://www.w3.org/2000/svg" viewBox="0 0 64 64" role="img" aria-label="Saolrian mark">
  <!-- Flame (calories) carrying a heartbeat trace (health). saol = life, rian = track. -->
  <mask id="saolrian-pulse">
    <rect width="64" height="64" fill="#fff"/>
    <path d="M10 39.5h14l3.2-8.4 4 13.6 3.2-9.4h6.8"
          fill="none" stroke="#000" stroke-width="4.6" stroke-linecap="round" stroke-linejoin="round"/>
  </mask>
  <path d="M31 5c6.4 8.4 6.6 14.2 4.6 18.8 3.4-1.8 5.4-4.6 6-8.2C46.8 22.4 49 29 49 35.4 49 45.2 41 53 31.6 53 22.2 53 15 45.6 15 36.2c0-6.4 3-12.2 8.6-16.6-.5 5 .7 8.8 3.4 11.2C24.2 22.6 25.8 12.6 31 5Z"
        fill="#0f7a5f" mask="url(#saolrian-pulse)"/>
  <!-- rim keeps the silhouette unbroken where the trace enters -->
  <path d="M31 5c6.4 8.4 6.6 14.2 4.6 18.8 3.4-1.8 5.4-4.6 6-8.2C46.8 22.4 49 29 49 35.4 49 45.2 41 53 31.6 53 22.2 53 15 45.6 15 36.2c0-6.4 3-12.2 8.6-16.6-.5 5 .7 8.8 3.4 11.2C24.2 22.6 25.8 12.6 31 5Z"
        fill="none" stroke="#0f7a5f" stroke-width="2.2" stroke-linejoin="round"/>
</svg>
